<svg xmlns="http://www.w3.org/2000/svg" width="1024" height="1024" viewBox="0 0 1024 1024"><rect width="1024" height="1024" rx="160" fill="#0b0f14"/><circle cx="786" cy="230" r="92" fill="#00f2ea"/><circle cx="238" cy="794" r="92" fill="#ff0050"/><path d="M242 570c50 66 111 99 183 99 67 0 105-25 105-68 0-38-29-57-119-76-118-26-178-84-178-174 0-106 88-180 217-180 88 0 162 31 220 93l-76 82c-43-44-91-66-145-66-57 0-93 25-93 64 0 37 29 54 118 75 123 28 181 85 181 176 0 113-92 184-234 184-111 0-199-41-263-123l84-86z" fill="#f8fafc"/><path d="M668 271h132v118H668v390H536V389H404V271h132V161h132v110z" fill="#38bdf8" opacity="0.96"/></svg>